<mxfile host="app.diagrams.net" modified="2023-10-02T16:59:43.140Z" agent="Mozilla/5.0 (Windows NT 10.0; Win64; x64) AppleWebKit/537.36 (KHTML, like Gecko) Chrome/117.0.0.0 Safari/537.36" version="21.7.5" etag="2MSNqifYH-iDjtwWU0rp" type="github">
  <diagram name="Trang-1" id="HlB7l5BaN-bWmumG9cXF">
    <mxGraphModel>
      <root>
        <mxCell id="0" />
        <mxCell id="1" parent="0" />
      </root>
    </mxGraphModel>
  </diagram>
</mxfile>
